<svg xmlns="http://www.w3.org/2000/svg" width="256" height="256" viewBox="0 0 100 100"><rect width="100" height="100" rx="20" fill="#22da6e"></rect><path d="M54.16 17.26L54.16 17.26Q60.87 17.26 65.57 19.04Q70.27 20.82 74.19 24.06L74.19 24.06L66.94 32.79Q64.38 30.67 61.27 29.43Q58.17 28.20 54.52 28.20L54.52 28.20Q50.61 28.20 47.37 30.42Q44.13 32.65 42.19 37.45Q40.26 42.24 40.26 49.89L40.26 49.89Q40.26 57.40 42.13 62.15Q43.99 66.90 47.28 69.13Q50.56 71.35 54.79 71.35L54.79 71.35Q59.47 71.35 62.58 69.60Q65.68 67.84 68.29 65.77L68.29 65.77L75.00 74.32Q71.49 77.79 66.36 80.26Q61.23 82.74 53.98 82.74L53.98 82.74Q45.52 82.74 38.98 78.98Q32.43 75.22 28.72 67.91Q25.00 60.60 25.00 49.89L25.00 49.89Q25.00 39.45 28.85 32.16Q32.70 24.87 39.31 21.06Q45.93 17.26 54.16 17.26Z" fill="#011627"></path></svg>